<?xml version="1.0" standalone="no"?>
<!DOCTYPE svg PUBLIC "-//W3C//DTD SVG 20010904//EN"
 "http://www.w3.org/TR/2001/REC-SVG-20010904/DTD/svg10.dtd">
<svg version="1.0" xmlns="http://www.w3.org/2000/svg"
 width="512.000000pt" height="512.000000pt" viewBox="0 0 512.000000 512.000000"
 preserveAspectRatio="xMidYMid meet">

<g transform="translate(0.000000,512.000000) scale(0.100000,-0.100000)"
fill="#fff" stroke="none">
<path d="M2002 5105 c-23 -7 -58 -25 -76 -39 -60 -45 -72 -88 -116 -392 -22
-153 -42 -294 -45 -312 -5 -29 -15 -37 -98 -78 -50 -26 -125 -69 -166 -97
l-74 -50 -291 118 c-254 103 -299 118 -351 119 -79 1 -142 -34 -189 -107 -52
-79 -476 -815 -502 -872 -32 -67 -31 -127 2 -194 23 -45 49 -70 202 -189 96
-75 209 -164 250 -197 l74 -60 0 -195 0 -195 -247 -195 c-269 -213 -292 -238
-302 -333 -5 -45 -1 -64 19 -108 31 -67 491 -862 523 -905 35 -46 106 -77 174
-77 48 0 97 17 347 118 l291 118 74 -50 c41 -27 115 -71 166 -97 82 -43 93
-51 98 -79 3 -18 23 -158 46 -312 43 -304 56 -346 115 -391 68 -53 86 -54 633
-54 278 0 524 5 545 10 22 5 58 21 80 37 70 49 81 86 126 398 22 154 42 295
45 313 5 29 15 37 98 78 50 26 125 69 166 97 l74 50 291 -119 c259 -105 298
-118 351 -118 65 0 123 23 162 66 24 26 493 835 530 913 32 69 30 129 -5 196
-24 47 -56 76 -276 249 l-248 195 0 195 0 195 248 196 c219 172 252 201 276
248 37 71 37 127 -1 206 -37 78 -483 848 -516 891 -35 46 -106 77 -174 77 -48
0 -97 -17 -344 -117 -320 -130 -285 -125 -387 -56 -30 20 -96 58 -147 84 -82
42 -93 51 -98 79 -3 18 -23 158 -45 311 -44 304 -56 347 -116 392 -68 53 -86
54 -638 53 -397 0 -521 -3 -554 -14z m686 -1485 c239 -30 455 -136 626 -306
175 -176 276 -386 307 -643 30 -250 -46 -532 -199 -737 -189 -254 -441 -399
-756 -435 -179 -21 -413 19 -571 98 -367 184 -605 563 -605 963 0 347 186 694
474 884 109 73 163 98 281 135 154 47 289 60 443 41z"/>
</g>
</svg>
