<?xml version="1.0" standalone="no"?>
<!DOCTYPE svg PUBLIC "-//W3C//DTD SVG 20010904//EN"
 "http://www.w3.org/TR/2001/REC-SVG-20010904/DTD/svg10.dtd">
<svg version="1.0" xmlns="http://www.w3.org/2000/svg"
 width="512.000000pt" height="512.000000pt" viewBox="0 0 512.000000 512.000000"
 preserveAspectRatio="xMidYMid meet">

<g transform="translate(0.000000,512.000000) scale(0.100000,-0.100000)"
fill="#fff" stroke="none">
<path d="M2330 5110 c-494 -48 -950 -230 -1350 -538 -195 -150 -448 -432 -594
-662 -63 -99 -186 -351 -230 -471 -49 -134 -102 -340 -128 -499 -31 -195 -31
-565 0 -760 45 -276 116 -498 237 -745 132 -269 269 -460 489 -681 221 -220
412 -357 681 -489 247 -121 469 -192 745 -237 195 -31 565 -31 760 0 276 45
498 116 745 237 269 132 460 269 681 489 220 221 357 412 489 681 88 179 132
296 180 476 63 240 78 371 78 649 0 278 -15 409 -78 649 -48 180 -92 297 -180
476 -132 269 -269 460 -489 681 -221 220 -412 357 -681 489 -246 121 -474 193
-740 235 -147 23 -475 34 -615 20z m539 -375 c722 -106 1336 -552 1660 -1206
155 -311 224 -614 224 -969 -1 -362 -72 -667 -227 -975 -154 -305 -348 -545
-606 -749 l-85 -66 -6 412 c-6 430 -6 427 -53 558 -75 205 -272 397 -482 471
-79 27 -193 49 -262 49 l-57 0 35 22 c185 112 295 222 387 388 133 239 148
552 41 817 -89 218 -295 423 -516 513 -127 51 -204 65 -362 65 -158 0 -235
-14 -362 -65 -221 -90 -427 -295 -516 -513 -68 -167 -90 -376 -57 -537 61
-298 208 -501 485 -668 l35 -22 -57 0 c-69 0 -183 -22 -262 -49 -210 -74 -407
-266 -482 -471 -47 -131 -47 -128 -53 -558 l-6 -412 -85 66 c-443 351 -727
845 -816 1419 -35 231 -20 561 37 805 198 845 894 1508 1744 1660 233 42 480
47 704 15z m-184 -1040 c220 -46 404 -230 450 -450 42 -201 -16 -396 -160
-540 -232 -232 -598 -232 -830 0 -232 232 -232 598 0 830 144 144 339 202 540
160z m469 -1819 c144 -55 246 -157 293 -294 14 -40 17 -117 20 -535 l4 -487
-48 -21 c-157 -67 -334 -117 -529 -150 -184 -31 -484 -31 -668 0 -195 33 -372
83 -529 150 l-48 21 4 487 c4 529 3 527 62 626 32 55 108 131 162 161 45 26
121 53 168 59 17 3 262 4 545 3 475 -2 519 -3 564 -20z"/>
</g>
</svg>
