<?xml version="1.0" standalone="no"?>
<!DOCTYPE svg PUBLIC "-//W3C//DTD SVG 20010904//EN"
 "http://www.w3.org/TR/2001/REC-SVG-20010904/DTD/svg10.dtd">
<svg version="1.0" xmlns="http://www.w3.org/2000/svg"
 width="512.000000pt" height="512.000000pt" viewBox="0 0 512.000000 512.000000"
 preserveAspectRatio="xMidYMid meet">

<g transform="translate(0.000000,512.000000) scale(0.100000,-0.100000)"
fill="#000000" stroke="none">
<path d="M2445 5109 c-92 -14 -155 -35 -256 -85 l-94 -47 -798 -796 c-559
-558 -811 -815 -841 -861 -93 -141 -130 -267 -130 -440 0 -144 18 -220 87
-360 45 -92 62 -116 142 -195 120 -120 221 -178 386 -222 93 -24 270 -22 373
6 153 41 350 160 418 252 l23 31 5 -859 c5 -845 6 -859 27 -936 80 -282 304
-500 588 -572 95 -24 275 -24 370 0 243 61 436 222 541 450 71 153 68 107 71
1057 l4 857 41 -45 c262 -284 744 -340 1051 -121 98 70 195 180 250 284 67
128 89 219 90 368 1 178 -37 308 -128 445 -30 44 -300 321 -842 861 l-798 797
-105 51 c-58 28 -134 57 -170 65 -86 20 -230 27 -305 15z m217 -320 c29 -6 85
-27 123 -47 64 -33 133 -98 813 -776 408 -408 762 -767 785 -799 144 -198 122
-464 -52 -631 -147 -140 -353 -173 -538 -86 -58 26 -96 59 -277 239 -116 115
-225 216 -243 225 -70 36 -156 12 -207 -57 -21 -28 -21 -32 -26 -1095 -5
-1064 -5 -1067 -27 -1119 -34 -85 -67 -135 -125 -190 -260 -245 -663 -138
-792 212 -7 21 -12 358 -16 1097 -5 1063 -5 1067 -26 1095 -54 73 -143 94
-214 52 -19 -12 -114 -101 -210 -198 -239 -242 -347 -311 -488 -311 -145 0
-260 46 -356 143 -156 155 -189 364 -90 566 24 47 146 175 768 799 408 409
768 764 801 789 33 25 76 53 95 61 91 40 205 51 302 31z"/>
</g>
</svg>
